# xmcd CD database file
#
# Track frame offsets:
#	150
#	38508
#	73344
#	98935
#	121730
#	154643
#	179702
#	208064
#	240710
#	280490
#
# Disc length: 4287 seconds
#
# Revision: 0
# Processed by: cddbd v1.5.2PL0 Copyright (c) Steve Scherf et al.
# Submitted via: CDex 1.51
#
DISCID=9110bd0a
DTITLE=CROSSROADS GUITAR FESTIVAL(June 2004) - All Stars Blues Jam
DYEAR=2004
DGENRE=Blues
TTITLE0=The Dirty Girl(Feat. Jimmie Vaughan) 
TTITLE1=Five Long Years(Feat. Eric Clapton) 
TTITLE2=The Twelve Year Old Boy(Feat. Robert Cray)
TTITLE3=Killing Floor(Feat. Hubert Sumlin - Robert Cray)
TTITLE4=Going Down Slow(Feat. Eric Clapton)
TTITLE5=Sweet Home Chicago(Feat. Buddy Guy)
TTITLE6=My Time After A While(Feat. Buddy Guy) 
TTITLE7=Six Strings Down(Feat. Robert Randolph) 
TTITLE8=Early In The Morning(Feat. Eric Clapton)
TTITLE9=Hoochie Coochie Man(Feat. Buddy Gay)
EXTD=YEAR: 2004
EXTT0=
EXTT1=
EXTT2=
EXTT3=
EXTT4=
EXTT5=
EXTT6=
EXTT7=
EXTT8=
EXTT9=
PLAYORDER=
